<?xml version="1.0" encoding="utf-8"?><svg xmlns="http://www.w3.org/2000/svg" xmlns:xlink="http://www.w3.org/1999/xlink"><symbol viewBox="0 0 14 14" id="icon_like" xmlns="http://www.w3.org/2000/svg"><path d="M12.89 1.985a3.765 3.765 0 00-2.8-1.22c-.809 0-1.55.256-2.2.76a4.5 4.5 0 00-.89.929 4.498 4.498 0 00-.89-.93 3.521 3.521 0 00-2.2-.758 3.765 3.765 0 00-2.8 1.219C.395 2.76 0 3.823 0 4.973c0 1.184.441 2.268 1.389 3.411.847 1.022 2.065 2.06 3.475 3.262.482.41 1.028.876 1.595 1.372a.821.821 0 001.082 0c.567-.496 1.113-.961 1.595-1.372 1.41-1.202 2.628-2.24 3.476-3.262C13.559 7.24 14 6.157 14 4.973c0-1.15-.395-2.212-1.11-2.988z"/></symbol><symbol viewBox="0 0 16 16" id="icon_nav1" xmlns="http://www.w3.org/2000/svg"><path d="M14.75 5.783v7.467a1.502 1.502 0 01-1.5 1.5h-2.5a1 1 0 01-1-1V11a.5.5 0 00-.5-.5h-2.5a.5.5 0 00-.5.5v2.75a1 1 0 01-1 1h-2.5a1.502 1.502 0 01-1.5-1.5V5.783a1.005 1.005 0 01.486-.858l5.75-3.45a1 1 0 011.029 0l5.75 3.45a1.005 1.005 0 01.485.858z"/></symbol><symbol viewBox="0 0 16 16" id="icon_nav2" xmlns="http://www.w3.org/2000/svg"><path d="M14 4.667H2v-2A.667.667 0 012.667 2h10.666a.667.667 0 01.667.667v2zM2 13.333V6h12v7.333a.666.666 0 01-.667.667H2.667A.666.666 0 012 13.333zm2-4h8V8H4v1.333zM4 12h4v-1.333H4V12z"/></symbol><symbol viewBox="0 0 16 16" id="icon_nav3" xmlns="http://www.w3.org/2000/svg"><g clip-path="url(#dclip0_124_2241)"><path d="M12.727 12.667H6.731c-.864 0-1.631-.568-1.865-1.38L2.839 4.419A.6.6 0 002.255 4H.667a.666.666 0 110-1.333h1.588c.864 0 1.63.567 1.864 1.38l.38 1.286h10.196c.416 0 .811.198 1.056.53.242.33.312.742.192 1.131l-1.376 4.365a1.935 1.935 0 01-1.84 1.308zm1.969-6h.007-.007zM7.333 16A1.335 1.335 0 016 14.667c0-.736.598-1.334 1.333-1.334a1.335 1.335 0 010 2.667zm0-1.334zM12 16a1.335 1.335 0 01-1.334-1.333 1.335 1.335 0 012.667 0c0 .735-.598 1.333-1.333 1.333zm0-1.334z"/></g><defs><clipPath id="dclip0_124_2241"><path d="M0 0h16v16H0z"/></clipPath></defs></symbol><symbol viewBox="0 0 16 16" id="icon_nav4" xmlns="http://www.w3.org/2000/svg"><g clip-path="url(#eclip0_124_2247)"><path d="M1.55 11.984H0V9.702l2.73 1.029-1.18 1.253zm3.463-1.496L0 8.598v-4.7l1.395.36c.749 1.774 2.262 3.352 2.347 3.44l.365.378.371-.374c.074-.074 1.23-1.25 2.024-2.73l1.085-.28v3.192l-2.574 2.604zm1.51-.06l1.202 1.006v3.718l-2.392.617L0 14.392v-1.376h1.995l1.782-1.89 1.499.564 1.247-1.262zm4.147-1.645l-2.338 1.812-1.08-.904L8.62 8.307V4.426l1.424-.368.464 2.78 2.005.442-.168 1.165-1.675.338z"/><path d="M11.41 5.98l-.329-1.975 1.837.474-.257 1.777-1.25-.275zM16 5.274v2.434l-2.581.52.504-3.49L16 5.274zm-4.185 4.332L16 8.76v3.91l-2.489-.915-1.696-2.15zm1.065 3.018L16 13.771v1.998l-5.334-1.377-1.91.493v-3.327l.007.008 2.039-1.579 2.078 2.637zM4.112.231c-1.157 0-2.098 1.006-2.098 2.242 0 .575.228 1.28.667 2.071.34.64 1.024 1.56 1.436 2.027a13.01 13.01 0 001.18-1.577c.6-.958.914-1.822.914-2.52C6.211 1.236 5.27.23 4.112.23zm.662 2.61H3.485V1.808h1.289v1.033z"/></g><defs><clipPath id="eclip0_124_2247"><path d="M0 0h16v16H0z"/></clipPath></defs></symbol><symbol viewBox="0 0 16 16" id="icon_nav5" xmlns="http://www.w3.org/2000/svg"><path d="M13.69 8.541h-1.237c.126.346.195.718.195 1.107v4.676c0 .162-.028.318-.08.462h2.046c.764 0 1.386-.621 1.386-1.386v-2.55a2.312 2.312 0 00-2.31-2.309zM3.352 9.648c0-.389.069-.761.195-1.107H2.31A2.312 2.312 0 000 10.851v2.55c0 .764.622 1.385 1.386 1.385h2.046a1.38 1.38 0 01-.08-.462V9.648zm6.062-2.31H6.586a2.312 2.312 0 00-2.31 2.31v4.676c0 .255.207.462.462.462h6.524a.462.462 0 00.462-.462V9.648a2.312 2.312 0 00-2.31-2.31zM8 1.214a2.78 2.78 0 00-2.778 2.778 2.78 2.78 0 004.135 2.422 2.78 2.78 0 001.42-2.422A2.78 2.78 0 008 1.214zM3.122 3.803A2.08 2.08 0 001.045 5.88 2.08 2.08 0 003.94 7.79a2.09 2.09 0 001.014-.934 2.06 2.06 0 00.245-.976 2.08 2.08 0 00-2.078-2.077zm9.756 0a2.08 2.08 0 00-1.834 3.053c.222.415.58.746 1.015.933a2.08 2.08 0 002.896-1.909 2.08 2.08 0 00-2.077-2.077z"/></symbol><symbol viewBox="0 0 16 16" id="icon_nav6" xmlns="http://www.w3.org/2000/svg"><g clip-path="url(#gclip0_124_2281)"><path d="M15.935 6.325L13.092 1.48a.469.469 0 00-.639-.17l-1.704.985-1.535-.565a1.713 1.713 0 00-1.453.125L5.223 3.32a1.172 1.172 0 001.172 2.03L9.18 3.742a.937.937 0 01.937 0l5.628 3.251.084-.069a.469.469 0 00.106-.599z"/><path d="M15.223 7.772L9.649 4.554 6.864 6.16a2.097 2.097 0 01-1.6.211c-.545-.146-1-.495-1.281-.983a2.095 2.095 0 01-.211-1.6c.12-.45.38-.838.74-1.118l-1.149-.664a.469.469 0 00-.647.185l-2.66 4.96a.47.47 0 00.178.627l.244.14.428-.74a1.993 1.993 0 013.184-.362 1.986 1.986 0 012.605 1.356c.015.056.027.113.037.17a1.996 1.996 0 011.514 1.596 1.995 1.995 0 011.278 2.937l-.584 1.012 1.252.722a1.055 1.055 0 101.055-1.826l.812.468a1.055 1.055 0 001.054-1.827l.542.313a1.055 1.055 0 001.054-1.827l-.541-.312a1.055 1.055 0 101.055-1.827z"/><path d="M8.326 10.967a1.055 1.055 0 00-1.44.386l.312-.541A1.055 1.055 0 105.37 9.757l.313-.541A1.055 1.055 0 103.857 8.16l-.313.541a1.055 1.055 0 00-1.826-1.054L.585 9.61a1.055 1.055 0 101.827 1.054 1.055 1.055 0 101.826 1.055 1.055 1.055 0 001.827 1.055 1.055 1.055 0 101.827 1.054l.82-1.42a1.055 1.055 0 00-.386-1.441z"/></g><defs><clipPath id="gclip0_124_2281"><path d="M0 0h16v16H0z"/></clipPath></defs></symbol><symbol viewBox="0 0 16 16" id="icon_nav7" xmlns="http://www.w3.org/2000/svg"><g clip-path="url(#hclip0_124_2288)"><path d="M12 0H4a2.753 2.753 0 00-2.75 2.75v8A2.753 2.753 0 004 13.5h2.217l1.354 2.257a.5.5 0 00.858 0L9.783 13.5H12a2.753 2.753 0 002.75-2.75v-8A2.753 2.753 0 0012 0zm.216 9.492l-1.06 1.06c-.298.298-.707.448-1.199.448-3.112 0-7.813-5.578-5.872-7.518l1.06-1.061a.5.5 0 01.708 0l1.944 1.944a.5.5 0 010 .708l-.935.935c.239.571 1.193 1.526 1.767 1.768l.936-.936a.5.5 0 01.707 0l1.944 1.945a.5.5 0 010 .707z"/><path d="M9.211 8.608c-.593.593-1.706-.291-2.298-.884-.592-.592-1.477-1.706-.884-2.298l.707-.707L5.5 3.482l-.707.707c-.22.22-.203.756.045 1.399.638 1.66 2.542 3.57 4.213 4.213.643.247 1.179.264 1.399.045l.707-.707L9.918 7.9l-.707.707z"/></g><defs><clipPath id="hclip0_124_2288"><path d="M0 0h16v16H0z"/></clipPath></defs></symbol><symbol viewBox="0 0 16 16" id="icon_nav8" xmlns="http://www.w3.org/2000/svg"><g clip-path="url(#iclip0_124_2293)"><path d="M14.068 3.92L12.08 1.933 8.377 5.666l1.99 1.989 3.702-3.734zM6.594 8.822a.469.469 0 00.614.613l2.38-1.231L7.826 6.44l-1.23 2.382zm9.269-6.696a.469.469 0 000-.663L14.537.137a.469.469 0 00-.663 0L12.742 1.27l1.989 1.989 1.132-1.132z"/><path d="M1.406 13.156h.469v2.375a.468.468 0 00.8.332l2.707-2.707h5.462c.775 0 1.406-.63 1.406-1.406V7.096l-1.479 1.478a1.39 1.39 0 01-.448.302l-2.684 1.392a1.48 1.48 0 01-.614.142 1.4 1.4 0 01-.404-.066h-3.34a.468.468 0 110-.938h2.374c-.093-.307-.053-.639.075-.944l1.446-2.81c.041-.103.143-.254.272-.383l1.487-1.488H1.406C.631 3.781 0 4.412 0 5.187v6.563c0 .775.63 1.406 1.406 1.406z"/></g><defs><clipPath id="iclip0_124_2293"><path d="M0 0h16v16H0z"/></clipPath></defs></symbol><symbol viewBox="0 0 16 14" id="icon_soc1" xmlns="http://www.w3.org/2000/svg"><path d="M14.787.875l-.053-.136a.016.016 0 00-.008-.008l-.132-.06C13.514.176 11.988.054 10.64 0H9.12c-.017 0-.022.023-.007.03l3.122 1.508c.018.008.008.035-.011.03A16.608 16.608 0 008 1.012c-1.396 0-2.81.185-4.21.552-.018.005-.028-.022-.01-.03L7.01.031c.016-.007.01-.03-.007-.03H5.361C4.012.053 2.487.175 1.406.67l-.132.06a.016.016 0 00-.008.009l-.053.135C.107 3.698-.207 8.49.127 11.493l.018.157.124.097c1.729 1.35 4.04 2.044 5.494 2.228l.188.024a.133.133 0 00.141-.086l.947-2.546a.134.134 0 00-.104-.179l-.29-.046c-1.013-.16-2.448-.585-3.66-1.692-.026-.024-.001-.066.032-.054.098.037.207.08.319.124.274.108.557.22.742.263 1.3.312 2.619.47 3.922.47v-.024h.003v.024c1.3 0 2.618-.158 3.919-.47a6.81 6.81 0 00.742-.263c.112-.044.22-.087.32-.124.032-.012.057.03.031.054-1.208 1.102-2.645 1.526-3.66 1.686l-.29.046a.134.134 0 00-.104.179l.947 2.552c.021.058.08.094.14.086l.189-.024c1.454-.184 3.765-.878 5.494-2.228l.124-.097.018-.157c.335-3.003.02-7.795-1.086-10.618zm-9.876 6.93A1.895 1.895 0 012.86 5.74a1.898 1.898 0 011.707-1.718 1.895 1.895 0 012.051 2.065 1.898 1.898 0 01-1.707 1.719zm6.522 0A1.895 1.895 0 019.382 5.74a1.898 1.898 0 011.707-1.718 1.896 1.896 0 012.051 2.065 1.898 1.898 0 01-1.707 1.719z"/></symbol><symbol viewBox="0 0 16 15" id="icon_soc2" xmlns="http://www.w3.org/2000/svg"><circle cx="4.5" cy="7.5" r="4.5"/><ellipse cx="11.454" cy="7.5" rx="1.636" ry="3.682"/><ellipse cx="14.727" cy="7.5" rx=".818" ry="2.864"/></symbol><symbol viewBox="0 0 16 16" id="icon_soc3" xmlns="http://www.w3.org/2000/svg"><path d="M8 0a8 8 0 10.002 16.002A8 8 0 008 0zm3.653 6.238c.003.078.005.157.005.237 0 2.426-1.847 5.224-5.225 5.224a5.197 5.197 0 01-2.814-.825 3.685 3.685 0 002.719-.76 1.838 1.838 0 01-1.716-1.276 1.827 1.827 0 00.83-.031 1.837 1.837 0 01-1.474-1.8v-.023c.248.137.53.22.832.23a1.834 1.834 0 01-.568-2.452A5.213 5.213 0 008.027 6.68a1.837 1.837 0 013.129-1.675 3.683 3.683 0 001.166-.445 1.844 1.844 0 01-.808 1.016 3.663 3.663 0 001.055-.29 3.732 3.732 0 01-.916.952z"/></symbol><symbol viewBox="0 0 16 16" id="icon_soc4" xmlns="http://www.w3.org/2000/svg"><path d="M8 16c4.42 0 8-3.58 8-8s-3.58-8-8-8-8 3.58-8 8 3.58 8 8 8zM3.66 7.827l7.714-2.974c.358-.13.67.087.555.628l-1.313 6.187c-.097.439-.358.545-.723.339l-2-1.474-.964.929c-.107.107-.197.197-.404.197l.142-2.036 3.707-3.348c.161-.142-.036-.222-.249-.081l-4.58 2.884-1.975-.616c-.429-.136-.438-.429.09-.635z"/></symbol><symbol viewBox="0 0 16 16" id="icon_soc5" xmlns="http://www.w3.org/2000/svg"><path d="M7.003 9.499L9.606 8 7.003 6.501V9.5z"/><path d="M8 0a8 8 0 10.002 16.002A8 8 0 008 0zm4.999 8.008s0 1.623-.206 2.405a1.253 1.253 0 01-.881.881C11.129 11.5 8 11.5 8 11.5s-3.121 0-3.912-.214a1.253 1.253 0 01-.881-.881C3.001 9.63 3.001 8 3.001 8s0-1.622.206-2.405a1.28 1.28 0 01.881-.89C4.871 4.5 8 4.5 8 4.5s3.13 0 3.912.214c.428.115.766.453.881.881.214.783.206 2.413.206 2.413z"/></symbol><symbol viewBox="0 0 16 16" id="icon_soc6" xmlns="http://www.w3.org/2000/svg"><path d="M9.531 8A1.531 1.531 0 116.47 8a1.531 1.531 0 013.06 0z"/><path d="M11.581 5.29a1.425 1.425 0 00-.344-.528 1.422 1.422 0 00-.528-.343c-.162-.063-.405-.138-.853-.158-.484-.022-.63-.027-1.856-.027-1.227 0-1.372.005-1.856.027-.448.02-.691.095-.853.158-.2.073-.38.19-.528.343-.153.149-.27.33-.344.529-.063.162-.138.405-.158.853-.022.484-.027.63-.027 1.856 0 1.227.005 1.372.027 1.856.02.448.095.691.158.853.074.2.19.38.343.528.149.153.33.27.529.344.162.063.405.138.853.158.484.022.63.027 1.856.027 1.227 0 1.372-.005 1.856-.027.448-.02.691-.095.853-.158.4-.154.718-.471.872-.872.063-.162.138-.405.158-.853.022-.484.027-.63.027-1.856 0-1.227-.005-1.372-.027-1.856-.02-.448-.095-.691-.158-.853zM8 10.36a2.359 2.359 0 110-4.72 2.359 2.359 0 010 4.718zm2.452-4.26a.551.551 0 110-1.103.551.551 0 010 1.103z"/><path d="M8 0a8 8 0 10.002 16.002A8 8 0 008 0zm4.566 9.894c-.022.489-.1.823-.214 1.115a2.348 2.348 0 01-1.343 1.343c-.292.114-.626.192-1.115.214-.49.022-.646.028-1.894.028-1.248 0-1.404-.006-1.894-.028-.489-.022-.823-.1-1.115-.214a2.25 2.25 0 01-.814-.53 2.25 2.25 0 01-.53-.813c-.113-.292-.19-.626-.213-1.115-.022-.49-.028-.646-.028-1.894 0-1.248.006-1.404.028-1.894.022-.489.1-.823.213-1.115a2.25 2.25 0 01.53-.814 2.25 2.25 0 01.814-.53c.292-.113.626-.19 1.115-.213.49-.022.646-.028 1.894-.028 1.248 0 1.404.006 1.894.028.489.022.823.1 1.115.213.307.116.584.297.814.53.233.23.414.507.53.814.113.292.19.626.213 1.115.022.49.028.646.028 1.894 0 1.248-.005 1.404-.028 1.894z"/></symbol><symbol viewBox="0 0 24 24" id="icon_soc7" xmlns="http://www.w3.org/2000/svg"><path d="M2.089 0L.525 4.175v16.694h5.736V24h3.132l3.127-3.132h4.695l6.26-6.258V0H2.089zm2.086 2.085H21.39v11.479l-3.652 3.652H12l-3.127 3.127v-3.127H4.175V2.085zm5.74 10.437H12v-6.26H9.915v6.26zm5.735 0h2.086v-6.26H15.65v6.26z"/></symbol><symbol viewBox="0 0 16 14" id="icon_socials1" xmlns="http://www.w3.org/2000/svg"><path d="M14.787.875l-.053-.136a.016.016 0 00-.008-.008l-.132-.06C13.514.176 11.988.054 10.64 0H9.12c-.017 0-.022.023-.007.03l3.122 1.508c.018.008.008.035-.011.03A16.608 16.608 0 008 1.012c-1.396 0-2.81.185-4.21.552-.018.005-.028-.022-.01-.03L7.01.031c.016-.007.01-.03-.007-.03H5.361C4.012.053 2.487.175 1.406.67l-.132.06a.016.016 0 00-.008.009l-.053.135C.107 3.698-.207 8.49.127 11.493l.018.157.124.097c1.729 1.35 4.04 2.044 5.494 2.228l.188.024a.133.133 0 00.141-.086l.947-2.546a.134.134 0 00-.104-.179l-.29-.046c-1.013-.16-2.448-.585-3.66-1.692-.026-.024-.001-.066.032-.054.098.037.207.08.319.124.274.108.557.22.742.263 1.3.312 2.619.47 3.922.47v-.024h.003v.024c1.3 0 2.618-.158 3.919-.47a6.81 6.81 0 00.742-.263c.112-.044.22-.087.32-.124.032-.012.057.03.031.054-1.208 1.102-2.645 1.526-3.66 1.686l-.29.046a.134.134 0 00-.104.179l.947 2.552c.021.058.08.094.14.086l.189-.024c1.454-.184 3.765-.878 5.494-2.228l.124-.097.018-.157c.335-3.003.02-7.795-1.086-10.618zm-9.876 6.93A1.895 1.895 0 012.86 5.74a1.898 1.898 0 011.707-1.718 1.895 1.895 0 012.051 2.065 1.898 1.898 0 01-1.707 1.719zm6.522 0A1.895 1.895 0 019.382 5.74a1.898 1.898 0 011.707-1.718 1.896 1.896 0 012.051 2.065 1.898 1.898 0 01-1.707 1.719z"/></symbol></svg>