<svg width="602" height="120" viewBox="0 0 602 120" fill="none" xmlns="http://www.w3.org/2000/svg">
<path d="M72.0838 5.64965L72.1729 5.68519H72.2689H529.731H529.818L529.9 5.65582L544.272 0.5H581.698L592.453 3.43961L601.5 6.76856V44.0589L592.478 46.43L592.105 46.528V46.9136V72.3457V72.7123L592.455 72.8225L601.5 75.6752V113.7L581.693 119.5H544.268L529.893 114.589L529.814 114.562H529.731H70.1008H69.9923L69.8936 114.607L59.152 119.5H17.4276L0.5 113.717V75.6662L8.83392 72.8188L9.17227 72.7032V72.3457V46.9136V46.5361L8.80919 46.4327L0.5 44.0669V6.76784L17.4341 0.5H59.1645L72.0838 5.64965Z" fill="#1A1919" fill-opacity="0.47" stroke="#191919"/>
</svg>
