<svg width="667" height="94" viewBox="0 0 667 94" fill="none" xmlns="http://www.w3.org/2000/svg">
<g opacity="0.15">
<path d="M0 5.02881L19.2173 0H65.6591L80.072 4.06173H586.928L602.942 0H644.58L656.591 2.32099L667 5.02881V34.8148L656.591 36.749V56.6708L667 58.9918V89.358L644.58 94H602.942L586.928 90.1317H77.6699L65.6591 94H19.2173L0 89.358V58.9918L9.60864 56.6708V36.749L0 34.8148V5.02881Z" fill="#00CA98" fill-opacity="0.15"/>
<path d="M79.9364 4.54298L80.0029 4.56173H80.072H586.928H586.99L587.051 4.54638L603.005 0.5H644.532L656.48 2.80889L666.5 5.41537V34.3992L656.499 36.2574L656.091 36.3333V36.749V56.6708V57.0716L656.482 57.1588L666.5 59.3926V88.9509L644.529 93.5H603.002L587.045 89.6457L586.987 89.6317H586.928H77.6699H77.5913L77.5166 89.6558L65.5805 93.5H19.2768L0.5 88.9644V59.3854L9.72604 57.1568L10.1086 57.0644V56.6708V36.749V36.3396L9.70731 36.2588L0.5 34.4054V5.4148L19.2816 0.5H65.59L79.9364 4.54298Z" stroke="#00CA98" stroke-opacity="0.46"/>
</g>
</svg>
