<svg width="416" height="144" viewBox="0 0 416 144" fill="none" xmlns="http://www.w3.org/2000/svg">
<path d="M134.498 50.8625L113.51 72.0001H100.874L116.921 55.8386L121.862 50.8625L116.921 45.8863L100.874 29.7249H113.51L134.498 50.8625Z" fill="#B6271B"/>
<path d="M120.506 29.7249L141.494 50.8625L120.506 72.0001H134.498L155.486 50.8625L134.498 29.7249H120.506Z" fill="#B6271B"/>
<path d="M141.494 29.7249L162.482 50.8625L141.494 72.0001H155.486L176.518 50.8625L155.486 29.7249H141.494Z" fill="#B6271B"/>
<path d="M162.482 29.7249L183.514 50.8625L162.482 72.0001H176.518L197.506 50.8625L176.518 29.7249H162.482Z" fill="#B6271B"/>
<path d="M183.514 29.7249L204.502 50.8625L183.514 72.0001H197.506L218.494 50.8625L197.506 29.7249H183.514Z" fill="#B6271B"/>
<path d="M204.502 29.7249L225.49 50.8625L204.502 72.0001H218.494L239.482 50.8625L218.494 29.7249H204.502Z" fill="#B6271B"/>
<path d="M225.49 29.7249L246.522 50.8625L225.49 72.0001H239.482L260.514 50.8625L239.482 29.7249H225.49Z" fill="#B6271B"/>
<path d="M246.522 29.7249L267.51 50.8625L246.522 72.0001H260.514L281.502 50.8625L260.514 29.7249H246.522Z" fill="#B6271B"/>
<path d="M267.51 29.7249L288.498 50.8625L267.51 72.0001H281.502L302.49 50.8625L281.502 29.7249H267.51Z" fill="#B6271B"/>
<path d="M288.498 29.7249L309.486 50.8625L288.498 72.0001H302.49L323.522 50.8625L302.49 29.7249H288.498Z" fill="#B6271B"/>
<path d="M309.486 29.7249L330.518 50.8625L309.486 72.0001H323.522L344.51 50.8625L323.522 29.7249H309.486Z" fill="#B6271B"/>
<path d="M330.518 29.7249L351.506 50.8625L330.518 72.0001H344.51L365.498 50.8625L344.51 29.7249H330.518Z" fill="#B6271B"/>
<path d="M351.506 29.7249L372.494 50.8625L351.506 72.0001H365.498L386.486 50.8625L365.498 29.7249H351.506Z" fill="#B6271B"/>
<path d="M372.494 29.7249L393.525 50.8625L372.494 72.0001H386.486L407.517 50.8625L386.486 29.7249H372.494Z" fill="#B6271B"/>
<path d="M407.517 29.7249H393.525L407.517 43.8166V29.7249Z" fill="#B6271B"/>
<path d="M407.517 57.9082L393.525 71.9999H407.517V57.9082Z" fill="#B6271B"/>
<path d="M416 21.1377V80.5872H92.3911L95.3644 77.5487H413.027V24.1762H95.3644L92.3911 21.1377H416Z" fill="#E5E6E8"/>
<path d="M78.4865 17.1304L44.9932 50.8625L78.4865 84.5946L85.4826 77.5487L111.98 50.8625L78.4865 17.1304ZM78.4865 73.4973L55.9682 50.8625L78.4865 28.1836L100.961 50.8184L78.4865 73.4973Z" fill="#E5E6E8"/>
<path d="M38.6093 50.8625L58.5479 30.7817L56.7989 29.0203L40.0523 45.8863L35.1113 50.8625L40.0523 55.8386L64.8444 80.8075L66.5934 79.046L38.6093 50.8625Z" fill="white"/>
<path d="M126.89 0L109.881 17.1303H226.102L233.098 10.0844H275.118L285.131 0H126.89ZM273.894 7.04587H231.874L224.878 14.0917H117.095L128.114 2.9945H277.873L273.894 7.04587Z" fill="#B6271B"/>
<path d="M349.013 14.0918H235.765L225.752 24.1762H358.983L349.013 14.0918Z" fill="#E5E6E8"/>
<path d="M180.103 84.5945L170.134 94.6789H135.11L121.118 108.771H60.8652L76.7374 92.7853L84.8703 84.5945H180.103Z" fill="#B6271B"/>
<path d="M128.42 108.771L136.422 100.712H176.43L192.434 84.5945H320.461L312.459 92.6532H192.434L176.43 108.771H128.42Z" fill="#E5E6E8"/>
<path d="M66.593 79.0458L64.844 80.8073L21.4251 124.492L20.3757 125.549C19.7635 124.756 19.0639 124.007 18.2769 123.435L62.3517 79.0458L34.3677 50.8623L56.4488 28.6238L58.5476 30.7375L38.609 50.8183L66.593 79.0458Z" fill="#E5E6E8"/>
<path d="M21.469 124.536C20.8568 123.743 20.1572 123.039 19.3702 122.422C17.3151 120.837 14.7791 119.868 12.0244 119.868C5.37818 119.868 0 125.284 0 131.934C0 138.584 5.37818 144 11.9807 144C18.5831 144 23.9613 138.584 23.9613 131.934C24.005 129.16 23.0431 126.561 21.469 124.536ZM11.9807 142.503C6.16523 142.503 1.48665 137.791 1.48665 131.934C1.48665 126.077 6.16523 121.365 11.9807 121.365C14.3418 121.365 16.5281 122.158 18.2771 123.479C19.0641 124.095 19.8074 124.8 20.3759 125.593C21.6876 127.354 22.4747 129.556 22.4747 131.934C22.4747 137.791 17.7961 142.503 11.9807 142.503Z" fill="#E5E6E8"/>
<path d="M11.9805 127.486C9.53186 127.486 7.52051 129.468 7.52051 131.934C7.52051 134.4 9.48813 136.426 11.9805 136.426C14.4291 136.426 16.3967 134.444 16.3967 131.934C16.4404 129.468 14.4291 127.486 11.9805 127.486Z" fill="#B6271B"/>
<path d="M78.4866 38.1357L65.8501 50.8624L78.4866 63.589L91.1231 50.8624L78.4866 38.1357Z" fill="#B6271B"/>
</svg>
