<svg width="466" height="141" viewBox="0 0 466 141" fill="none" xmlns="http://www.w3.org/2000/svg">
<g opacity="0.15">
<path d="M0 7.54321L13.4262 0H45.8727L55.9424 6.09259H410.058L421.246 0H450.336L458.728 3.48148L466 7.54321V52.2222L458.728 55.1235V85.0062L466 88.4877V134.037L450.336 141H421.246L410.058 135.198H54.2641L45.8727 141H13.4262L0 134.037V88.4877L6.71309 85.0062V55.1235L0 52.2222V7.54321Z" fill="#00CA98" fill-opacity="0.15"/>
<path d="M55.6835 6.52038L55.8029 6.59259H55.9424H410.058H410.185L410.297 6.53171L421.373 0.5H450.237L458.509 3.9322L465.5 7.83665V51.8834L458.542 54.659L458.228 54.7846V55.1235V85.0062V85.3212L458.512 85.4572L465.5 88.8026V133.712L450.23 140.5H421.368L410.288 134.754L410.18 134.698H410.058H54.2641H54.1081L53.9797 134.786L45.7167 140.5H13.5481L0.5 133.733V88.7916L6.94328 85.45L7.21309 85.3101V85.0062V55.1235V54.7948L6.91144 54.6645L0.5 51.8936V7.8358L13.557 0.5H45.7333L55.6835 6.52038Z" stroke="#00CA98" stroke-opacity="0.46"/>
</g>
</svg>
