<svg width="217" height="216" viewBox="0 0 217 216" fill="none" xmlns="http://www.w3.org/2000/svg">
<g filter="url(#filter0_d_124_1942)">
<path d="M175.386 146.793C154.008 183.821 106.719 196.537 69.767 175.203C32.8146 153.868 20.1827 106.558 41.561 69.5293C62.9392 32.5011 110.227 19.7854 147.18 41.1199C184.132 62.4544 196.764 109.765 175.386 146.793Z" stroke="url(#paint0_linear_124_1942)" stroke-width="3" shape-rendering="crispEdges"/>
</g>
<g filter="url(#filter1_d_124_1942)">
<path d="M41.7099 69.2314C63.0882 32.2032 110.376 19.4875 147.329 40.8219C184.281 62.1564 196.913 109.467 175.535 146.495C154.156 183.523 106.868 196.239 69.916 174.905C32.9636 153.57 20.3317 106.26 41.7099 69.2314Z" stroke="url(#paint1_linear_124_1942)" stroke-width="3" shape-rendering="crispEdges"/>
</g>
<defs>
<filter id="filter0_d_124_1942" x="9.65918" y="13.2725" width="197.628" height="197.778" filterUnits="userSpaceOnUse" color-interpolation-filters="sRGB">
<feFlood flood-opacity="0" result="BackgroundImageFix"/>
<feColorMatrix in="SourceAlpha" type="matrix" values="0 0 0 0 0 0 0 0 0 0 0 0 0 0 0 0 0 0 127 0" result="hardAlpha"/>
<feOffset dy="4"/>
<feGaussianBlur stdDeviation="10"/>
<feComposite in2="hardAlpha" operator="out"/>
<feColorMatrix type="matrix" values="0 0 0 0 0.756863 0 0 0 0 0.156863 0 0 0 0 0.101961 0 0 0 1 0"/>
<feBlend mode="normal" in2="BackgroundImageFix" result="effect1_dropShadow_124_1942"/>
<feBlend mode="normal" in="SourceGraphic" in2="effect1_dropShadow_124_1942" result="shape"/>
</filter>
<filter id="filter1_d_124_1942" x="9.80811" y="12.9746" width="197.628" height="197.777" filterUnits="userSpaceOnUse" color-interpolation-filters="sRGB">
<feFlood flood-opacity="0" result="BackgroundImageFix"/>
<feColorMatrix in="SourceAlpha" type="matrix" values="0 0 0 0 0 0 0 0 0 0 0 0 0 0 0 0 0 0 127 0" result="hardAlpha"/>
<feOffset dy="4"/>
<feGaussianBlur stdDeviation="10"/>
<feComposite in2="hardAlpha" operator="out"/>
<feColorMatrix type="matrix" values="0 0 0 0 0.756863 0 0 0 0 0.156863 0 0 0 0 0.101961 0 0 0 1 0"/>
<feBlend mode="normal" in2="BackgroundImageFix" result="effect1_dropShadow_124_1942"/>
<feBlend mode="normal" in="SourceGraphic" in2="effect1_dropShadow_124_1942" result="shape"/>
</filter>
<linearGradient id="paint0_linear_124_1942" x1="147.93" y1="39.8209" x2="69.017" y2="176.502" gradientUnits="userSpaceOnUse">
<stop offset="0.838542" stop-color="#C1281A" stop-opacity="0"/>
<stop offset="1" stop-color="#C1281A"/>
</linearGradient>
<linearGradient id="paint1_linear_124_1942" x1="69.166" y1="176.204" x2="148.079" y2="39.5229" gradientUnits="userSpaceOnUse">
<stop offset="0.838542" stop-color="#C1281A" stop-opacity="0"/>
<stop offset="1" stop-color="#C1281A"/>
</linearGradient>
</defs>
</svg>
