<?xml version="1.0" encoding="utf-8"?>
<!-- Generator: Adobe Illustrator 26.3.1, SVG Export Plug-In . SVG Version: 6.00 Build 0)  -->
<svg version="1.1" id="Layer_1" xmlns="http://www.w3.org/2000/svg" xmlns:xlink="http://www.w3.org/1999/xlink" x="0px" y="0px"
	 viewBox="0 0 550 724.3" style="enable-background:new 0 0 550 724.3;" xml:space="preserve">
<style type="text/css">
	.st0{fill:url(#SVGID_1_);}
	.st1{fill:none;stroke:url(#SVGID_00000013156782630947032810000010193982156233206167_);stroke-width:3;}
	.st2{fill:url(#SVGID_00000093156397930970513280000012111392734833160360_);fill-opacity:0.14;}
	.st3{fill:#B32318;}
	.st4{fill:#271A19;}
	.st5{fill:#B52316;}
	.st6{fill:none;stroke:#B32318;stroke-width:3;}
</style>
<linearGradient id="SVGID_1_" gradientUnits="userSpaceOnUse" x1="459.127" y1="-326.9415" x2="522.127" y2="-326.9415" gradientTransform="matrix(1 0 0 -1 0 364)">
	<stop  offset="0" style="stop-color:#B82418"/>
	<stop  offset="1" style="stop-color:#B82418"/>
</linearGradient>
<path class="st0" d="M459.1,711h56.5l0.2-53.4l6.3,13.4v53.4h-56.7L459.1,711z"/>
<g>
	
		<linearGradient id="SVGID_00000096758042203924032460000012770165353805734840_" gradientUnits="userSpaceOnUse" x1="525.3419" y1="-13.5167" x2="42.477" y2="15.8485" gradientTransform="matrix(1 0 0 -1 0 364)">
		<stop  offset="0" style="stop-color:#B82418"/>
		<stop  offset="1" style="stop-color:#B82418;stop-opacity:0"/>
	</linearGradient>
	
		<path shape-rendering="crispEdges" style="fill:none;stroke:url(#SVGID_00000096758042203924032460000012770165353805734840_);stroke-width:3;" d="
		M514.5,709.6L68.4,697.7l-51.9-85.4V285.9V154.3V40.2V25h433.1l32.5,52.4l32.4,52.1v279.3v280.8V709.6z"/>
</g>
<linearGradient id="SVGID_00000034777336530868757850000001134725633337622173_" gradientUnits="userSpaceOnUse" x1="111.325" y1="-2.2628" x2="508" y2="-2.2628" gradientTransform="matrix(1 0 0 -1 0 364)">
	<stop  offset="0" style="stop-color:#1F1E1C;stop-opacity:0"/>
	<stop  offset="1" style="stop-color:#B9B9B9"/>
</linearGradient>
<path style="fill:url(#SVGID_00000034777336530868757850000001134725633337622173_);fill-opacity:0.14;" d="M78.7,684.6l-50.7-83
	v-313V162.9V54V36.5h416.9l31.6,50.6l31.6,50.6v268.1V674V696L78.7,684.6z"/>
<rect x="513.3" y="251.1" class="st3" width="26" height="6.3"/>
<rect x="512.2" y="257.7" class="st4" width="4" height="54.3"/>
<path class="st5" d="M271.9,1c0,3.1-1.2,5.6-2.7,5.6v5.6h2.7h2.7h2.7V6.6c-1.5,0-2.7-2.6-2.7-5.6H271.9z"/>
<path class="st5" d="M282.7,1c0,3.1-1.2,5.6-2.7,5.6v5.6h2.7h2.7h2.7V6.6c-1.5,0-2.7-2.6-2.7-5.6H282.7z"/>
<path class="st5" d="M293.5,1c0,3.1-1.2,5.6-2.7,5.6v5.6h2.7h2.7h2.7V6.6c-1.5,0-2.7-2.6-2.7-5.6H293.5z"/>
<path class="st5" d="M239.5,1c0,3.1-1.2,5.6-2.7,5.6v5.6h2.7h2.7h2.7V6.6c-1.5,0-2.7-2.6-2.7-5.6H239.5z"/>
<path class="st5" d="M250.3,1c0,3.1-1.2,5.6-2.7,5.6v5.6h2.7h2.7h2.7V6.6c-1.5,0-2.7-2.6-2.7-5.6H250.3z"/>
<path class="st5" d="M261.1,1c0,3.1-1.2,5.6-2.7,5.6v5.6h2.7h2.7h2.7V6.6c-1.5,0-2.7-2.6-2.7-5.6H261.1z"/>
<ellipse class="st6" cx="543.3" cy="255.4" rx="5" ry="10.4"/>
</svg>
