<svg width="28" height="21" viewBox="0 0 28 21" fill="none" xmlns="http://www.w3.org/2000/svg">
<path d="M25.3505 20.5738H2.0951C0.6363 20.5738 0.0882 19.3404 0.00280001 18.6894L0 10.4364C0.000248352 10.3928 0.00830944 10.3497 0.0238 10.309L3.2879 1.91739C3.45479 1.4972 3.7475 1.13889 4.12595 0.891518C4.50439 0.644151 4.95006 0.519833 5.4019 0.535594H22.0325C22.4881 0.51927 22.9376 0.644595 23.3191 0.894314C23.7006 1.14403 23.9953 1.50587 24.1626 1.92999L27.4211 10.309C27.4366 10.3497 27.4446 10.3928 27.4449 10.4364V18.6439C27.3574 19.3411 26.81 20.5738 25.3505 20.5738ZM0.7 10.5022V18.6439C0.7147 18.7272 0.9107 19.8745 2.0951 19.8745H25.3505C26.5671 19.8745 26.7407 18.6509 26.7477 18.5991L26.7449 10.5029L23.5053 2.17289C23.4878 2.12459 23.1539 1.23699 22.0444 1.23699H5.4145C4.2742 1.23699 3.9487 2.14979 3.9452 2.15889L0.7 10.5022Z" fill="white"/>
<path d="M18.739 12.3874H8.70799C8.65897 12.3871 8.61055 12.3766 8.56583 12.3566C8.5211 12.3365 8.48108 12.3073 8.44831 12.2709C8.41555 12.2344 8.39077 12.1915 8.37558 12.1449C8.36038 12.0983 8.35511 12.049 8.36009 12.0003C8.44549 11.1946 8.33769 10.5968 8.04579 10.2727C7.75739 9.95207 7.31499 9.97657 7.27509 9.97937L3.37399 9.98287C3.31704 9.98272 3.26099 9.96868 3.2107 9.94196C3.16041 9.91524 3.11739 9.87666 3.08539 9.82955C3.05339 9.78245 3.03337 9.72824 3.02706 9.67165C3.02075 9.61505 3.02834 9.55777 3.04919 9.50477L5.49149 3.33497C5.51731 3.26972 5.56216 3.21373 5.6202 3.17429C5.67825 3.13484 5.74681 3.11376 5.81699 3.11377H21.6286C21.6988 3.11376 21.7673 3.13484 21.8254 3.17429C21.8834 3.21373 21.9283 3.26972 21.9541 3.33497L24.3628 9.42147C24.4023 9.47337 24.4266 9.53528 24.4328 9.60022C24.439 9.66516 24.4269 9.73055 24.398 9.789C24.369 9.84745 24.3243 9.89665 24.2688 9.93103C24.2134 9.96541 24.1494 9.9836 24.0842 9.98357H20.2174C20.1635 9.97937 20.1369 9.97727 20.0977 9.97727C19.936 9.97727 19.6315 10.0158 19.3998 10.2734C19.1086 10.5982 19.0001 11.1946 19.0862 12.001C19.0917 12.0497 19.0869 12.0991 19.0719 12.1459C19.057 12.1927 19.0323 12.2357 18.9995 12.2722C18.9667 12.3088 18.9265 12.3379 18.8816 12.3577C18.8367 12.3776 18.7881 12.3877 18.739 12.3874ZM9.08459 11.6874H18.3617C18.3281 10.8572 18.5017 10.2251 18.879 9.80577C19.4495 9.17157 20.2678 9.28777 20.2671 9.28707L23.555 9.28427L21.3899 3.81377H6.05499L3.88989 9.28427H7.21419C7.22469 9.28217 7.27719 9.27797 7.34859 9.27797C7.62649 9.27797 8.15289 9.34657 8.56659 9.80577C8.94389 10.2251 9.11819 10.8572 9.08459 11.6874Z" fill="white"/>
</svg>
