<svg width="16" height="14" viewBox="0 0 16 14" fill="none" xmlns="http://www.w3.org/2000/svg">
<path d="M14.787 0.874547L14.7341 0.739431C14.7326 0.735553 14.7296 0.73235 14.7258 0.730622L14.5944 0.670566C13.5132 0.176081 11.9882 0.0540718 10.6388 0H9.11905C9.10189 0 9.09666 0.0233483 9.11211 0.030808L12.2338 1.53778C12.2515 1.54625 12.2417 1.57263 12.2228 1.56766C10.8188 1.19847 9.40053 1.0116 8.00001 1.0116C6.60401 1.0116 5.1903 1.19733 3.79066 1.56416C3.77161 1.56914 3.76194 1.54246 3.77982 1.53415L7.01109 0.0309765C7.02675 0.0236854 7.02164 8.42433e-05 7.00435 8.42433e-05H5.36124C4.01195 0.054156 2.48678 0.176165 1.40561 0.67065L1.27427 0.730707C1.27046 0.732435 1.26745 0.735596 1.26594 0.739515L1.21304 0.874631C0.106547 3.69774 -0.20787 8.49041 0.127433 11.4928L0.145012 11.6503L0.269407 11.7474C1.99795 13.0971 4.30924 13.791 5.76326 13.9751L5.95127 13.9989C6.01238 14.0067 6.07077 13.9711 6.09237 13.9131L7.03872 11.3672C7.06822 11.2879 7.018 11.2012 6.93487 11.1881L6.64448 11.1421C5.63187 10.9819 4.1972 10.5573 2.98477 9.45013C2.95891 9.42649 2.98385 9.384 3.01658 9.39623C3.11511 9.4331 3.22377 9.47584 3.33565 9.51984C3.6098 9.62768 3.89333 9.7392 4.07833 9.78345C5.37852 10.0947 6.69701 10.2526 7.99992 10.2526V10.2293H8.00265L8.00281 10.2526C9.30309 10.2526 10.6215 10.0948 11.9216 9.78345C12.1067 9.73916 12.3902 9.62768 12.6644 9.51979C12.7762 9.47579 12.8848 9.43306 12.9833 9.39623C13.016 9.384 13.041 9.42653 13.0151 9.45013C11.8068 10.5524 10.3703 10.9759 9.35541 11.136L9.0651 11.1818C8.98198 11.1949 8.93167 11.2814 8.96113 11.3608L9.90765 13.9129C9.92921 13.971 9.98764 14.0067 10.0487 13.9989L10.2369 13.9751C11.6909 13.791 14.002 13.097 15.7306 11.7474L15.855 11.6503L15.8725 11.4928C16.2079 8.49041 15.8935 3.6977 14.787 0.874547ZM4.91125 7.80577C3.73583 7.9113 2.7552 6.92397 2.85988 5.74042C2.94016 4.83317 3.66568 4.10254 4.56674 4.02163C5.74216 3.91609 6.72279 4.90342 6.61811 6.08697C6.53779 6.99422 5.81227 7.72485 4.91125 7.80577ZM11.4334 7.80577C10.258 7.9113 9.27735 6.92397 9.38203 5.74042C9.46231 4.83317 10.1878 4.10254 11.0889 4.02163C12.2643 3.91609 13.2449 4.90342 13.1403 6.08697C13.0599 6.99422 12.3344 7.72485 11.4334 7.80577Z" fill="#C1281A"/>
</svg>
