<svg width="28" height="29" viewBox="0 0 28 29" fill="none" xmlns="http://www.w3.org/2000/svg">
<path d="M13.9969 28.2899C13.9962 28.2899 13.9962 28.2899 13.9969 28.2899C10.3135 28.2899 6.85761 26.8612 4.26411 24.2677C1.66991 21.6735 0.241211 18.2169 0.241211 14.5349C0.241211 10.8529 1.66991 7.39703 4.26411 4.80353C6.85971 2.20723 10.317 0.777832 13.9976 0.777832C17.6761 0.777832 21.1327 2.20793 23.729 4.80423C29.0945 10.1704 29.0945 18.9022 23.729 24.2684C21.1341 26.8612 17.6782 28.2899 13.9969 28.2899ZM13.9976 1.47783C10.5039 1.47783 7.22301 2.83513 4.75901 5.29843C2.29711 7.76033 0.941211 11.0405 0.941211 14.5349C0.941211 18.03 2.29711 21.3109 4.75901 23.7728C7.22021 26.2347 10.5011 27.5899 13.9962 27.5899H13.9969C17.4913 27.5899 20.7715 26.234 23.2334 23.7728C28.3259 18.6796 28.3259 10.3923 23.2334 5.29843C20.7694 2.83443 17.4892 1.47783 13.9976 1.47783Z" fill="white"/>
<path d="M12.016 25.5181C11.9537 25.5181 11.8872 25.5076 11.8179 25.488C11.6629 25.4369 11.5316 25.3314 11.4483 25.191C11.3651 25.0506 11.3355 24.8848 11.365 24.7243L13.0436 16.178L9.98387 15.3198C9.88737 15.2925 9.79829 15.2438 9.72333 15.1772C9.64837 15.1106 9.58947 15.0278 9.55107 14.9352C9.51267 14.8426 9.49577 14.7425 9.50162 14.6424C9.50747 14.5423 9.53594 14.4448 9.58487 14.3573L15.3536 3.89295C15.4326 3.75479 15.5579 3.64901 15.7074 3.59431C15.8569 3.53962 16.0209 3.53952 16.1705 3.59405C16.3193 3.64861 16.4433 3.75528 16.5195 3.89429C16.5957 4.03331 16.6189 4.19523 16.5849 4.35005L15.0827 11.7771L17.9891 12.4687C18.1921 12.524 18.3517 12.6549 18.4357 12.8306C18.4787 12.9221 18.5004 13.0222 18.4991 13.1233C18.4977 13.2245 18.4734 13.324 18.428 13.4144L12.6117 25.1485C12.5565 25.2593 12.4716 25.3526 12.3663 25.4179C12.2611 25.4832 12.1398 25.5179 12.016 25.5181ZM15.8527 4.43685L10.1967 14.6968L13.5434 15.5914C13.7191 15.6404 13.8276 15.8168 13.7919 15.996L12.1021 24.5969L17.8008 13.1008L14.5899 12.3798C14.5014 12.3588 14.4246 12.3043 14.3756 12.2278C14.3266 12.1512 14.3093 12.0586 14.3274 11.9696L15.8527 4.43685Z" fill="white"/>
</svg>
