<svg width="27" height="27" viewBox="0 0 27 27" fill="none" xmlns="http://www.w3.org/2000/svg">
<path d="M14.0406 26.5532H11.977C11.5128 26.553 11.0676 26.3687 10.739 26.0408C10.4104 25.7129 10.2253 25.2681 10.2242 24.8039V22.538C9.59656 22.3426 8.99086 22.0826 8.4168 21.7624L6.9769 23.1932C6.3042 23.8533 5.1646 23.847 4.5017 23.1855L3.0429 21.7176C2.71659 21.3881 2.53429 20.9426 2.536 20.4788C2.5377 20.015 2.72327 19.5709 3.052 19.2438L4.5745 17.7318C4.35057 17.2799 4.16262 16.8111 4.0124 16.3297H1.75C1.28571 16.3275 0.841133 16.1417 0.513283 15.8129C0.185433 15.4842 0.000918869 15.0391 0 14.5748V12.5105C0.00037013 12.0463 0.184819 11.6013 0.512887 11.273C0.840955 10.9446 1.28586 10.7598 1.75 10.7591H4.0159C4.211 10.1324 4.47094 9.52787 4.7915 8.95518L3.1045 7.25138C2.94184 7.08821 2.81321 6.89434 2.72609 6.68105C2.63897 6.46775 2.59509 6.23927 2.597 6.00888C2.59775 5.7791 2.64411 5.55176 2.73339 5.34004C2.82267 5.12831 2.95309 4.93642 3.1171 4.77548L4.5808 3.31878C5.2514 2.66078 6.3987 2.66778 7.0567 3.32718L8.8235 5.11008C9.2715 4.88608 9.7426 4.69708 10.2298 4.54798V2.28418C10.2298 1.31888 11.0152 0.53418 11.9798 0.53418H14.0462C14.51 0.534921 14.9547 0.719555 15.2826 1.0476C15.6105 1.37565 15.7949 1.82034 15.7955 2.28418V4.55078C16.301 4.7074 16.7923 4.90669 17.2641 5.14648L19.0477 3.37968C19.7204 2.71888 20.8628 2.72868 21.5229 3.38808L22.9789 4.85528C23.3058 5.18218 23.4864 5.62248 23.4864 6.09428C23.4864 6.32433 23.4406 6.55209 23.3518 6.76431C23.263 6.97653 23.1329 7.16898 22.9691 7.33048L21.2716 9.01748C21.5761 9.57328 21.8239 10.1585 22.0101 10.7633H24.2781C24.7419 10.764 25.1866 10.9487 25.5145 11.2767C25.8424 11.6048 26.0268 12.0494 26.0274 12.5133V14.5741C26.0272 15.0382 25.8429 15.4833 25.515 15.8118C25.1871 16.1403 24.7422 16.3253 24.2781 16.3262H22.0101C21.8542 16.8326 21.6544 17.3245 21.413 17.7962L22.9243 19.318C23.2505 19.6407 23.4311 20.0817 23.4311 20.557C23.4311 21.0232 23.247 21.4614 22.9138 21.7918L21.4501 23.2492C20.7774 23.9093 19.628 23.8967 18.9756 23.2394L17.5469 21.7995C16.989 22.1061 16.4059 22.3546 15.806 22.5401V24.8074C15.7981 25.2713 15.609 25.7138 15.2791 26.0401C14.9491 26.3663 14.5046 26.5505 14.0406 26.5532ZM8.3111 20.9294L8.533 21.0603C9.19496 21.4538 9.90569 21.7588 10.647 21.9675L10.8899 22.0354V24.8025C10.8899 25.4003 11.3778 25.8868 11.977 25.8868H14.0406C14.329 25.8852 14.6054 25.771 14.8108 25.5686C15.0162 25.3662 15.1345 25.0915 15.1403 24.8032V22.0396L15.3832 21.9717C16.1021 21.7703 16.7917 21.4764 17.4349 21.0974L17.6568 20.9665L19.4467 22.7697C19.8506 23.1771 20.5639 23.1841 20.9818 22.7746L22.4441 21.3179C22.6506 21.1135 22.7647 20.8426 22.7647 20.5556C22.7647 20.2595 22.6541 19.9872 22.4532 19.7884L20.5933 17.9145L20.7116 17.6975C21.0266 17.1179 21.2709 16.5138 21.4389 15.9034L21.5068 15.6591H24.2781C24.8759 15.6591 25.3624 15.1719 25.3624 14.5727V12.5119C25.3624 11.9141 24.8759 11.4269 24.2781 11.4269H21.5075L21.4396 11.1833C21.2394 10.4631 20.9469 9.77187 20.5695 9.12668L20.4393 8.90408L22.4994 6.85658C22.7066 6.65078 22.8207 6.37918 22.8207 6.09218C22.8207 5.79818 22.7094 5.52518 22.5071 5.32358L21.0511 3.85638C20.8452 3.657 20.57 3.54517 20.2833 3.54439C19.9967 3.54361 19.7209 3.65393 19.5139 3.85218L17.3838 5.96268L17.1668 5.84578C16.5978 5.53706 15.996 5.2931 15.3727 5.11848L15.1291 5.05058V2.28418C15.1291 1.68638 14.6426 1.19918 14.0448 1.19918H11.9784C11.3806 1.19918 10.8941 1.68568 10.8941 2.28418V5.04988L10.6505 5.11778C10.0415 5.28648 9.4584 5.52028 8.9159 5.81148L8.6968 5.92908L6.5835 3.79688C6.1768 3.39088 5.4621 3.38458 5.047 3.79268L3.5847 5.24798C3.48287 5.3476 3.40189 5.46649 3.34648 5.59773C3.29108 5.72897 3.26236 5.86993 3.262 6.01238C3.26079 6.15531 3.28801 6.29706 3.34209 6.42937C3.39617 6.56168 3.47602 6.68192 3.577 6.78308L5.6231 8.85018L5.4922 9.07068C5.09876 9.73171 4.79376 10.4415 4.585 11.1819L4.5171 11.4248H1.75C1.1522 11.4248 0.6657 11.912 0.6657 12.5105V14.5748C0.6657 15.1733 1.1522 15.6619 1.7514 15.664H4.5157L4.5836 15.9076C4.746 16.4928 4.9791 17.0752 5.278 17.6401L5.3935 17.8578L3.5217 19.7149C3.31803 19.9174 3.203 20.1925 3.20182 20.4797C3.20064 20.767 3.31341 21.043 3.5154 21.2472L4.9735 22.7144C5.3851 23.1239 6.0928 23.1281 6.51 22.7186L8.3111 20.9294Z" fill="white"/>
<path d="M13.0137 18.6551C10.1948 18.6551 7.90234 16.3619 7.90234 13.5437C7.90234 10.7241 10.1955 8.43091 13.0137 8.43091C15.8326 8.43091 18.1265 10.7248 18.1265 13.5437C18.1258 16.3626 15.8326 18.6551 13.0137 18.6551ZM13.0137 9.09661C11.8348 9.09809 10.7046 9.56712 9.87105 10.4008C9.03749 11.2345 8.56864 12.3648 8.56734 13.5437C8.56883 14.7225 9.03776 15.8526 9.8713 16.6862C10.7048 17.5197 11.8349 17.9886 13.0137 17.9901C14.1927 17.9888 15.3229 17.52 16.1566 16.6864C16.9903 15.8528 17.4594 14.7226 17.4608 13.5437C17.4592 12.3648 16.9901 11.2346 16.1565 10.401C15.3228 9.56734 14.1927 9.09828 13.0137 9.09661Z" fill="white"/>
</svg>
