<svg width="92" height="92" viewBox="0 0 92 92" fill="none" xmlns="http://www.w3.org/2000/svg">
<g opacity="0.3">
<path opacity="0.3" d="M79.5367 71.8364C82.857 67.3347 85.396 62.2457 86.9585 56.7653C88.3257 51.2848 88.7163 45.6087 87.9351 39.9325C87.1538 34.2564 85.396 28.9717 82.4664 24.0784C79.732 19.1852 75.8258 14.8792 71.3337 11.5518C66.8416 8.22435 61.7635 5.67987 56.2948 4.11403C50.8261 2.74393 45.1621 2.35247 39.4981 3.13539C33.8341 3.9183 28.5607 5.67987 23.678 8.61581C18.7952 11.356 14.4984 15.2706 11.1781 19.7724C7.85784 24.2742 5.3188 29.3631 3.75632 34.8436C2.38915 40.324 1.99853 46.0002 2.77977 51.6763C3.75632 56.961 5.51411 62.4414 8.44377 67.3347C11.1781 72.2279 15.0843 76.534 19.5765 79.8614C24.0686 83.1888 29.1467 85.7332 34.6154 87.2991C40.084 88.6692 45.748 89.0606 51.412 88.2777C57.076 87.4948 62.3494 85.7332 67.2322 82.7973C71.9196 80.0571 76.2165 76.3382 79.5367 71.8364L80.1227 72.2279C76.6071 76.7297 72.3102 80.6443 67.4275 83.3845C62.5447 86.3204 57.076 88.082 51.412 88.8649C45.748 89.6478 39.8887 89.2564 34.42 87.6905C28.9514 86.3204 23.678 83.5802 19.1858 80.2528C14.6937 76.7297 10.7875 72.4236 8.05315 67.5304C5.12349 62.6372 3.3657 57.1567 2.58446 51.4806C1.60791 45.8044 1.99853 39.9325 3.3657 34.4521C4.73287 28.9717 7.46722 23.687 10.7875 19.1852C14.3031 14.6834 18.5999 10.7688 23.4827 8.02862C28.3654 5.09268 33.8341 3.33112 39.4981 2.5482C45.1621 1.76528 51.0214 2.15674 56.4901 3.72257C61.9588 5.09268 67.2322 7.83289 71.7243 11.1603C76.2165 14.6834 80.1227 18.9895 82.857 23.8827C85.7867 28.776 87.5444 34.2564 88.3257 39.9325C89.1069 45.6087 88.7163 51.4806 87.1538 56.961C85.7867 62.4414 83.0523 67.7261 79.732 72.2279L79.5367 71.8364Z" fill="white"/>
<path opacity="0.3" d="M24.6552 81.0359C32.077 85.5377 40.866 87.495 49.4597 86.5163C58.0533 85.7334 66.2563 82.2103 72.7016 76.3384L75.8266 79.8615C68.6001 86.3206 59.4205 90.2352 49.8503 91.2138C40.2801 92.1925 30.5146 90.0394 22.3115 84.9505L24.6552 81.0359Z" fill="white"/>
<path opacity="0.3" d="M78.1704 70.4662C81.4907 65.9644 84.0297 60.8755 85.3969 55.395C86.7641 49.9146 86.9594 44.2384 85.9828 38.758L90.475 37.9751C91.4515 44.0427 91.2562 50.5018 89.6937 56.3737C88.1312 62.4413 85.3969 68.1175 81.686 73.0107L78.1704 70.4662Z" fill="white"/>
<path opacity="0.3" d="M64.3034 9.20296C57.0769 5.4841 48.4833 3.91826 40.2803 4.89691C32.0772 5.87555 24.2648 9.59442 18.2102 15.0748C11.9602 20.751 7.66342 28.1887 5.71032 36.2136C3.75721 44.2385 4.34314 52.8506 7.46811 60.4841L3.17128 62.2457C-0.148993 53.6336 -0.734923 44.0428 1.41349 35.235C3.5619 26.2314 8.44466 18.0108 15.2805 11.9432C22.1164 5.67982 30.9054 1.76523 39.8896 0.590857C49.0692 -0.58352 58.4441 0.982316 66.6471 5.28837L64.3034 9.20296Z" fill="white"/>
</g>
</svg>
