<svg width="112" height="110" viewBox="0 0 112 110" fill="none" xmlns="http://www.w3.org/2000/svg">
<g opacity="0.8">
<path opacity="0.8" d="M107.702 54.6085C107.702 47.758 106.335 40.9075 103.796 34.6441C101.257 28.3808 97.3505 22.5089 92.4677 17.6157C87.585 12.7224 81.921 8.80784 75.4757 6.26336C69.2258 3.71887 62.3899 2.34876 55.5541 2.34876C48.7182 2.34876 41.8824 3.71887 35.6324 6.26336C29.1872 9.00357 23.3279 12.9182 18.6404 17.6157C13.7577 22.5089 9.85148 28.3808 7.31244 34.6441C4.77341 40.9075 3.40624 47.758 3.40624 54.6085C3.40624 61.4591 4.77341 68.3096 7.31244 74.573C9.85148 81.032 13.7577 86.9039 18.6404 91.7972C23.5232 96.6904 29.1872 100.605 35.6324 103.149C41.8824 105.694 48.7182 107.064 55.5541 107.064C62.3899 107.064 69.2258 105.694 75.4757 103.149C81.7257 100.605 87.585 96.6904 92.4677 91.7972C97.3505 86.9039 101.257 81.2278 103.796 74.7687C106.53 68.5053 107.702 61.6548 107.702 54.6085H108.483C108.483 61.6548 107.116 68.5053 104.382 74.9644C101.647 81.4235 97.7411 87.2954 92.8584 92.1886C87.9756 97.0819 82.1163 100.996 75.6711 103.737C69.2258 106.477 62.3899 107.847 55.3588 107.847C48.3276 107.847 41.4917 106.477 35.0465 103.737C28.6013 100.996 22.742 97.0819 17.8592 92.1886C12.9764 87.2954 9.07024 81.4235 6.33589 74.9644C3.60155 68.5053 2.23438 61.6548 2.23438 54.6085C2.23438 47.5623 3.60155 40.7118 6.33589 34.2527C9.07024 27.7936 12.9764 21.9217 17.8592 17.0285C22.742 12.1352 28.6013 8.22065 35.0465 5.48044C41.4917 2.74022 48.3276 1.37012 55.3588 1.37012C62.3899 1.37012 69.2258 2.74022 75.6711 5.48044C82.1163 8.22065 87.9756 12.1352 92.8584 17.0285C97.7411 21.9217 101.647 27.7936 104.382 34.2527C107.116 40.7118 108.483 47.5623 108.483 54.6085H107.702Z" fill="white"/>
<path opacity="0.8" d="M61.4136 104.324C71.765 103.149 81.7258 98.452 89.5383 91.4057C97.1554 84.1637 102.624 74.573 104.577 64.395L110.046 65.3737C107.897 76.9217 101.843 87.4911 93.2492 95.516C84.6555 103.541 73.5228 108.63 61.9995 110L61.4136 104.324Z" fill="white"/>
<path opacity="0.8" d="M105.358 54.6086C105.358 47.7581 103.991 41.1033 101.257 34.8399C98.5224 28.5766 94.6162 22.9004 89.5381 18.3986L93.4443 14.2883C98.913 19.3773 103.405 25.6406 106.335 32.6869C109.46 39.5374 111.022 47.1709 111.022 54.8043L105.358 54.6086Z" fill="white"/>
<path opacity="0.8" d="M46.7646 5.48043C36.8038 7.24199 27.6242 12.1352 20.3977 19.1815C13.1712 26.2278 8.28849 35.6228 6.5307 45.4093C4.7729 55.3915 5.94477 65.9609 10.0463 74.9644C14.1478 84.1637 20.9837 91.9929 29.5773 97.2776L26.6477 102.171C17.0775 96.2989 9.46035 87.4911 4.77291 77.3132C0.280767 67.1352 -1.08641 55.3915 0.866698 44.4306C2.8198 33.4698 8.28849 23.0961 16.2962 15.2669C24.3039 7.43772 34.6554 1.9573 45.5928 0L46.7646 5.48043Z" fill="white"/>
</g>
</svg>
